<svg width="171" height="103" viewBox="0 0 171 103" fill="none" xmlns="http://www.w3.org/2000/svg">
<path d="M158.324 0.59375H29.6445C26.4578 0.597306 23.4027 1.86479 21.1494 4.11812C18.896 6.37144 17.6286 9.42659 17.625 12.6133V51.5H3.48438C2.73431 51.5 2.01496 51.798 1.48459 52.3283C0.954212 52.8587 0.65625 53.5781 0.65625 54.3281C0.65625 55.0782 0.954212 55.7975 1.48459 56.3279C2.01496 56.8583 2.73431 57.1562 3.48438 57.1562H17.625V74.125H11.9688C11.2187 74.125 10.4993 74.423 9.96896 74.9533C9.43859 75.4837 9.14062 76.2031 9.14062 76.9531C9.14062 77.7032 9.43859 78.4225 9.96896 78.9529C10.4993 79.4833 11.2187 79.7812 11.9688 79.7812H17.625V90.3867C17.6286 93.5734 18.896 96.6286 21.1494 98.8819C23.4027 101.135 26.4578 102.403 29.6445 102.406H158.324C161.511 102.403 164.566 101.135 166.819 98.8819C169.073 96.6286 170.34 93.5734 170.344 90.3867V12.6133C170.34 9.42659 169.073 6.37144 166.819 4.11812C164.566 1.86479 161.511 0.597306 158.324 0.59375V0.59375ZM29.6445 6.25H158.324C158.764 6.2503 159.202 6.29615 159.632 6.38681L99.9213 56.9123C98.2642 58.3216 96.1597 59.0955 93.9844 59.0955C91.809 59.0955 89.7046 58.3216 88.0474 56.9123L28.3365 6.38681C28.7666 6.29613 29.205 6.25029 29.6445 6.25V6.25ZM23.2812 90.3867V79.7812H28.9375C29.6876 79.7812 30.4069 79.4833 30.9373 78.9529C31.4677 78.4225 31.7656 77.7032 31.7656 76.9531C31.7656 76.2031 31.4677 75.4837 30.9373 74.9533C30.4069 74.423 29.6876 74.125 28.9375 74.125H23.2812V68.4688H31.7656C32.5157 68.4688 33.235 68.1708 33.7654 67.6404C34.2958 67.11 34.5938 66.3907 34.5938 65.6406C34.5938 64.8906 34.2958 64.1712 33.7654 63.6408C33.235 63.1105 32.5157 62.8125 31.7656 62.8125H23.2812V57.1562H34.5938C35.3438 57.1562 36.0632 56.8583 36.5935 56.3279C37.1239 55.7975 37.4219 55.0782 37.4219 54.3281C37.4219 53.5781 37.1239 52.8587 36.5935 52.3283C36.0632 51.798 35.3438 51.5 34.5938 51.5H23.2812V12.6133C23.2821 11.6905 23.4853 10.7792 23.8766 9.94353C23.9969 10.0986 24.1329 10.2407 24.2824 10.3677L78.1971 55.9879L23.8288 92.9578C23.468 92.1487 23.2815 91.2727 23.2812 90.3867ZM158.324 96.75H29.6445C29.2523 96.7486 28.8611 96.711 28.4758 96.6376L82.6789 59.7793L84.3935 61.2287C87.0706 63.5054 90.4702 64.7555 93.9844 64.7555C97.4986 64.7555 100.898 63.5054 103.575 61.2287L105.29 59.7793L159.493 96.6376C159.108 96.711 158.716 96.7486 158.324 96.75ZM164.688 90.3867C164.687 91.2727 164.501 92.1487 164.14 92.9578L109.772 55.9872L164.12 10.0004C164.493 10.8209 164.687 11.7118 164.688 12.6133V90.3867Z" fill="white"/>
<path d="M11.9688 68.4688C12.7188 68.4688 13.4382 68.1708 13.9685 67.6404C14.4989 67.11 14.7969 66.3907 14.7969 65.6406C14.7969 64.8906 14.4989 64.1712 13.9685 63.6408C13.4382 63.1105 12.7188 62.8125 11.9688 62.8125H6.3125C5.56243 62.8125 4.84309 63.1105 4.31271 63.6408C3.78234 64.1712 3.48438 64.8906 3.48438 65.6406C3.48438 66.3907 3.78234 67.11 4.31271 67.6404C4.84309 68.1708 5.56243 68.4688 6.3125 68.4688H11.9688Z" fill="white"/>
</svg>
