<svg width="905" height="963" viewBox="0 0 905 963" fill="none" xmlns="http://www.w3.org/2000/svg">
<g clip-path="url(#clip0)">
<path d="M715.4 140.44C767.5 207.82 776.18 303.13 781.27 390.51C786.36 477.89 788.07 557.17 767.12 651.91C746.12 746.47 702.57 856.32 620.28 906.71C537.99 957.29 416.82 948.42 315.66 903.31C214.5 858.39 133.53 777.23 81.44 681.92C29.54 586.42 6.50998 477 50.3 405.23C94.09 333.46 204.49 299.54 285.84 237.45C367.37 175.35 419.84 85.14 494.02 59.66C568 34 663.31 73.25 715.4 140.44Z" fill="#F2F2F2"/>
<path d="M114.48 161.68H788.29" stroke="#FD8369" stroke-width="15" stroke-miterlimit="10"/>
<path d="M0 161.68H28.21" stroke="#FD8369" stroke-width="15" stroke-miterlimit="10"/>
<path d="M876.03 161.68H904.24" stroke="#FD8369" stroke-width="15" stroke-miterlimit="10"/>
<path d="M402.38 480.68C388.38 424.68 346.38 362.68 330.38 343.68C314.38 324.68 271.38 226.68 233.38 175.68C222.38 178.68 214.38 182.68 214.38 187.68C214.38 192.68 226.38 271.68 273.38 355.68C282.6 372.15 312.38 502.68 368.38 535.68C394 550.75 402.38 480.68 402.38 480.68Z" fill="#DE8E68"/>
<path d="M500.38 480.68C514.38 424.68 556.38 362.68 572.38 343.68C588.38 324.68 631.38 226.68 669.38 175.68C680.38 178.68 688.38 182.68 688.38 187.68C688.38 192.68 676.38 271.68 629.38 355.68C620.17 372.15 590.38 502.68 534.38 535.68C508.81 550.75 500.38 480.68 500.38 480.68Z" fill="#DE8E68"/>
<path d="M681.38 188.68C696.292 188.68 708.38 176.592 708.38 161.68C708.38 146.768 696.292 134.68 681.38 134.68C666.468 134.68 654.38 146.768 654.38 161.68C654.38 176.592 666.468 188.68 681.38 188.68Z" fill="#DE8E68"/>
<path d="M214.38 188.68C229.292 188.68 241.38 176.592 241.38 161.68C241.38 146.768 229.292 134.68 214.38 134.68C199.468 134.68 187.38 146.768 187.38 161.68C187.38 176.592 199.468 188.68 214.38 188.68Z" fill="#DE8E68"/>
<path d="M449.62 436.68C337.62 436.68 319.12 738.18 343.62 762.68C368.12 787.18 548.12 780.18 565.62 762.68C583.12 745.18 568.62 436.68 449.62 436.68Z" fill="#DE8E68"/>
<path d="M405.88 365.68C413.336 365.68 419.38 359.636 419.38 352.18C419.38 344.724 413.336 338.68 405.88 338.68C398.424 338.68 392.38 344.724 392.38 352.18C392.38 359.636 398.424 365.68 405.88 365.68Z" fill="#DE8E68"/>
<path d="M496.88 365.68C504.336 365.68 510.38 359.636 510.38 352.18C510.38 344.724 504.336 338.68 496.88 338.68C489.424 338.68 483.38 344.724 483.38 352.18C483.38 359.636 489.424 365.68 496.88 365.68Z" fill="#DE8E68"/>
<path d="M552.71 566.79C530.538 559.15 512.193 543.21 501.531 522.323C490.869 501.436 488.721 477.228 495.54 454.79C482.34 443.37 467.11 436.7 449.62 436.7C433.38 436.7 419.11 443.06 406.62 453.98C410.386 464.938 411.933 476.537 411.17 488.099C410.407 499.661 407.35 510.956 402.176 521.324C397.003 531.692 389.817 540.927 381.037 548.489C372.258 556.051 362.06 561.79 351.04 565.37C329.65 650.59 330.04 749.13 343.59 762.7C368.09 787.2 548.09 780.2 565.59 762.7C575.35 753 575.19 653.37 552.71 566.79Z" fill="#FED385"/>
<path d="M420.24 722C416.68 713.35 341.83 607.66 226.24 607.66C213.78 607.66 289.12 796.66 289.12 813.58C289.12 830.5 432.46 855.58 451.41 855.58V720.87L420.24 722Z" fill="#56CAD8"/>
<path d="M220.87 607.61C209.18 607.61 199.81 620.51 199.81 637.12C199.81 726.67 317.95 919.12 326.64 919.12H374.23C343.61 816.88 330.68 607.61 220.87 607.61Z" fill="#74D5DE"/>
<path d="M482.52 722C486.09 713.35 560.94 607.66 676.52 607.66C688.98 607.66 613.64 796.66 613.64 813.58C613.64 830.5 470.29 855.58 451.34 855.58V720.87L482.52 722Z" fill="#56CAD8"/>
<path d="M680.07 607.61C691.76 607.61 701.13 620.51 701.13 637.12C701.13 726.67 582.99 919.12 574.3 919.12H526.71C557.33 816.88 570.25 607.61 680.07 607.61Z" fill="#74D5DE"/>
<path d="M372.63 962.99L374.23 919.09H326.64L263.69 950.3V962.99H372.63Z" fill="black"/>
<path d="M528.31 962.99L526.71 919.09H574.3L637.24 950.3V962.99H528.31Z" fill="black"/>
<path d="M474.38 468.68C474.38 481.68 428.38 481.68 428.38 468.68V398.68H474.38V468.68Z" fill="#D37C59"/>
<path d="M451.38 411.18C478.718 411.18 500.88 384.093 500.88 350.68C500.88 317.267 478.718 290.18 451.38 290.18C424.042 290.18 401.88 317.267 401.88 350.68C401.88 384.093 424.042 411.18 451.38 411.18Z" fill="#DE8E68"/>
<path d="M114.47 0H64.86V323.37H114.47V0Z" fill="#FD8369"/>
<path d="M837.9 0H788.29V323.37H837.9V0Z" fill="#FD8369"/>
<path d="M61.77 68.0601H27.41V255.32H61.77V68.0601Z" fill="#FD8369"/>
<path d="M876.14 68.0601H841.78V255.32H876.14V68.0601Z" fill="#FD8369"/>
<path d="M488.588 310.455C488.588 310.455 429.826 314.209 415.105 310.455C411.606 326.009 404.318 352.372 403.16 333.384C402.001 314.397 407.141 289.939 418.725 283.1C418.725 283.1 425.43 277.269 442.632 275.679L434.29 261.378C437.307 255.88 445.005 245.608 451.666 248.505C458.326 251.401 463.129 258.293 464.697 261.378L456.296 275.382C463.968 275.696 472.991 276.79 483.521 279.077C498 291.95 498 321.048 498 338.212L488.588 310.455Z" fill="#0F0F0F"/>
<path d="M415.105 310.455C429.826 314.209 488.588 310.455 488.588 310.455L498 338.212C498 321.048 498 291.95 483.521 279.077C435.376 268.619 418.725 283.1 418.725 283.1C407.141 289.939 402.001 314.397 403.16 333.384C404.318 352.372 411.606 326.009 415.105 310.455ZM446.96 283.1L434.29 261.378C437.307 255.88 445.005 245.608 451.666 248.505C458.326 251.401 463.129 258.293 464.697 261.378L451.666 283.1H446.96Z" stroke="black"/>
<path d="M423 344L434.5 337L445 344" stroke="black" stroke-width="4"/>
<path d="M460 345L471.5 338L482 345" stroke="black" stroke-width="4"/>
</g>
<defs>
<clipPath id="clip0">
<rect width="904.24" height="962.99" fill="white"/>
</clipPath>
</defs>
</svg>
