<svg width="1035" height="738" viewBox="0 0 1035 738" fill="none" xmlns="http://www.w3.org/2000/svg">
<path d="M696.32 129.32C768.32 197.44 831.27 261.94 902.25 353.63C973.23 445.32 1052 564.22 1014.66 635.2C977.36 705.91 823.76 728.71 712.38 735.2C601.25 741.94 532.09 732.35 469.38 723.81C406.44 715.52 349.45 708.26 270.7 691.17C191.7 674.07 90.94 647.17 39.7 582.17C-11.3 517.17 -13.14 414.06 34.26 345.17C81.66 276.28 178 241.22 257.78 175.68C337.3 110.15 400.25 13.5299 472 1.3599C544 -10.8201 624.57 61.1899 696.32 129.32Z" fill="#F2F2F2"/>
<path d="M7.63 331.37C41.14 369 170.41 449 186.83 460.63C203.25 472.26 470.67 652.39 492.55 661C617.72 655.56 673.8 558.44 673.8 533.82C673.8 509.2 540.27 333.89 482.24 327.31C471.88 326.14 350.95 363.31 350.95 363.31L84.09 137.51C51.84 111.14 7.63 76.4199 7.63 76.4199V331.42" fill="#D37C59"/>
<path d="M743.166 290.432L687.1 322.802L823.06 558.291L879.126 525.921L743.166 290.432Z" fill="#FED892"/>
<path d="M834.09 530.37C843.921 530.37 851.89 522.401 851.89 512.57C851.89 502.739 843.921 494.77 834.09 494.77C824.259 494.77 816.29 502.739 816.29 512.57C816.29 522.401 824.259 530.37 834.09 530.37Z" fill="#FD8369"/>
<path d="M834.09 530.37C843.921 530.37 851.89 522.401 851.89 512.57C851.89 502.739 843.921 494.77 834.09 494.77C824.259 494.77 816.29 502.739 816.29 512.57C816.29 522.401 824.259 530.37 834.09 530.37Z" fill="url(#paint0_linear)"/>
<path d="M693.46 333.82C686.8 337.76 647.96 357.19 635.01 355.57C622.06 353.95 563.79 332.91 546.01 339.38C528.23 345.85 444.01 383.08 444.01 383.08C444.01 383.08 367.94 464 366.33 465.63C364.72 467.26 366.23 479.84 368.55 481.85C370.87 483.86 397.01 491.75 401.34 489.12C405.67 486.49 464.14 441.63 474.66 441.63C485.18 441.63 585.54 513.76 645.32 577.43C659.11 571.43 786.38 494.77 786.38 494.77L693.46 333.82Z" fill="#DE8E68"/>
<path d="M290.9 527.93C290.9 527.93 285.7 557.29 297.21 574.01C308.72 590.73 398.29 649.81 410.92 651.67C423.55 653.53 446.59 635.67 449.19 625.67C451.79 615.67 435.07 578.85 430.24 573.67C425.41 568.49 356.3 520.13 348.86 519C341.42 517.87 302.42 520.87 290.9 527.93Z" fill="#DE8E68"/>
<path d="M299.64 577.43L349.13 539.92" stroke="#5B5B5B" stroke-width="1.62" stroke-linecap="round" stroke-linejoin="round"/>
<path d="M338.48 608.87L387.98 571.36" stroke="#5B5B5B" stroke-width="1.62" stroke-linecap="round" stroke-linejoin="round"/>
<path d="M376.37 633.31L413.99 604.81" stroke="#5B5B5B" stroke-width="1.62" stroke-linecap="round" stroke-linejoin="round"/>
<path d="M617.15 615.61L476.34 501.17" stroke="#5B5B5B" stroke-width="1.62" stroke-linecap="round" stroke-linejoin="round"/>
<path d="M564.78 644.75L475.47 572.17" stroke="#5B5B5B" stroke-width="1.62" stroke-linecap="round" stroke-linejoin="round"/>
<path d="M520.13 660.21L446.64 600.49" stroke="#5B5B5B" stroke-width="1.62" stroke-linecap="round" stroke-linejoin="round"/>
<path d="M232.22 360.708L179.342 315.498C169.377 306.978 154.391 308.15 145.871 318.115L93.63 379.217C85.1098 389.182 86.2812 404.168 96.2466 412.688L149.124 457.898C159.09 466.418 174.075 465.247 182.596 455.281L234.837 394.18C243.357 384.214 242.186 369.228 232.22 360.708Z" fill="#5B5B5B"/>
<path d="M281.061 301.791L231.908 259.766L182.26 317.835L231.413 359.86L281.061 301.791Z" fill="#74D5DE"/>
<path d="M226.49 674.73C237.558 674.73 246.53 665.758 246.53 654.69C246.53 643.622 237.558 634.65 226.49 634.65C215.422 634.65 206.45 643.622 206.45 654.69C206.45 665.758 215.422 674.73 226.49 674.73Z" stroke="#74D5DE" stroke-width="8.09" stroke-miterlimit="10"/>
<path d="M737.68 639.43C745.721 639.43 752.24 632.911 752.24 624.87C752.24 616.829 745.721 610.31 737.68 610.31C729.639 610.31 723.12 616.829 723.12 624.87C723.12 632.911 729.639 639.43 737.68 639.43Z" stroke="#74D5DE" stroke-width="8.09" stroke-miterlimit="10"/>
<path d="M638.51 300.94C646.551 300.94 653.07 294.421 653.07 286.38C653.07 278.339 646.551 271.82 638.51 271.82C630.469 271.82 623.95 278.339 623.95 286.38C623.95 294.421 630.469 300.94 638.51 300.94Z" stroke="#74D5DE" stroke-width="8.09" stroke-miterlimit="10"/>
<path d="M575.06 105.42H323.88V205.12H575.06V105.42Z" fill="#FED385"/>
<path d="M513.83 241.44L533.08 200.97H494.58L513.83 241.44Z" fill="#FED385"/>
<path d="M357.99 130.8H540.94" stroke="#FD8369" stroke-width="3.24" stroke-linecap="round" stroke-linejoin="round"/>
<path d="M357.99 155.27H540.94" stroke="#FD8369" stroke-width="3.24" stroke-linecap="round" stroke-linejoin="round"/>
<path d="M357.99 179.73H540.94" stroke="#FD8369" stroke-width="3.24" stroke-linecap="round" stroke-linejoin="round"/>
<path d="M1035 115.61L1016.86 126.54C1016.86 126.54 808.48 252.59 743.16 290.43L851.9 478.76L1035 381.6V115.61Z" fill="#74D5DE"/>
<defs>
<linearGradient id="paint0_linear" x1="834.09" y1="494.77" x2="834.09" y2="530.37" gradientUnits="userSpaceOnUse">
<stop stop-color="white"/>
<stop offset="1" stop-color="white" stop-opacity="0"/>
</linearGradient>
</defs>
</svg>
