<svg width="90" height="127" viewBox="0 0 90 127" fill="none" xmlns="http://www.w3.org/2000/svg">
<path d="M40.5252 3.93445C39.7179 4.68836 38.4523 4.64511 37.6984 3.83784C36.9445 3.03056 36.9877 1.76497 37.795 1.01106C38.6023 0.257146 39.8679 0.300402 40.6218 1.10768C41.3757 1.91495 41.3325 3.18054 40.5252 3.93445Z" fill="#DADADA"/>
<path d="M45.9855 9.78124C45.1782 10.5352 43.9126 10.4919 43.1587 9.68462C42.4048 8.87735 42.4481 7.61176 43.2553 6.85784C44.0626 6.10393 45.3282 6.14719 46.0821 6.95446C46.836 7.76173 46.7928 9.02732 45.9855 9.78124Z" fill="#DADADA"/>
<path d="M51.4458 15.628C50.6385 16.3819 49.373 16.3387 48.619 15.5314C47.8651 14.7241 47.9084 13.4585 48.7157 12.7046C49.5229 11.9507 50.7885 11.994 51.5424 12.8012C52.2964 13.6085 52.2531 14.8741 51.4458 15.628Z" fill="#DADADA"/>
<path d="M56.9061 21.4748C56.0989 22.2287 54.8333 22.1855 54.0794 21.3782C53.3255 20.5709 53.3687 19.3053 54.176 18.5514C54.9833 17.7975 56.2488 17.8408 57.0028 18.648C57.7567 19.4553 57.7134 20.7209 56.9061 21.4748Z" fill="#DADADA"/>
<path d="M62.3665 27.3216C61.5592 28.0755 60.2936 28.0323 59.5397 27.225C58.7858 26.4177 58.829 25.1521 59.6363 24.3982C60.4436 23.6443 61.7092 23.6875 62.4631 24.4948C63.217 25.3021 63.1737 26.5677 62.3665 27.3216Z" fill="#DADADA"/>
<path d="M67.8268 33.1684C67.0195 33.9223 65.7539 33.879 65 33.0718C64.2461 32.2645 64.2894 30.9989 65.0966 30.245C65.9039 29.4911 67.1695 29.5343 67.9234 30.3416C68.6773 31.1489 68.6341 32.4145 67.8268 33.1684Z" fill="#DADADA"/>
<path d="M73.2871 39.0152C72.4798 39.7691 71.2142 39.7258 70.4603 38.9186C69.7064 38.1113 69.7497 36.8457 70.5569 36.0918C71.3642 35.3379 72.6298 35.3811 73.3837 36.1884C74.1376 36.9957 74.0944 38.2613 73.2871 39.0152Z" fill="#DADADA"/>
<path d="M78.7474 44.862C77.9401 45.6159 76.6746 45.5726 75.9206 44.7653C75.1667 43.9581 75.21 42.6925 76.0173 41.9386C76.8245 41.1846 78.0901 41.2279 78.844 42.0352C79.598 42.8425 79.5547 44.108 78.7474 44.862Z" fill="#DADADA"/>
<path d="M3.98276 38.0615C3.17549 38.8154 1.9099 38.7721 1.15599 37.9648C0.402074 37.1576 0.44533 35.892 1.2526 35.1381C2.05988 34.3842 3.32547 34.4274 4.07938 35.2347C4.83329 36.042 4.79004 37.3076 3.98276 38.0615Z" fill="#DADADA"/>
<path d="M9.44308 43.9083C8.63581 44.6622 7.37022 44.6189 6.61631 43.8116C5.86239 43.0044 5.90565 41.7388 6.71292 40.9849C7.5202 40.2309 8.78579 40.2742 9.5397 41.0815C10.2936 41.8887 10.2504 43.1543 9.44308 43.9083Z" fill="#DADADA"/>
<path d="M14.9034 49.755C14.0961 50.509 12.8305 50.4657 12.0766 49.6584C11.3227 48.8511 11.366 47.5856 12.1732 46.8316C12.9805 46.0777 14.2461 46.121 15 46.9283C15.7539 47.7355 15.7107 49.0011 14.9034 49.755Z" fill="#DADADA"/>
<path d="M20.3637 55.6018C19.5565 56.3557 18.2909 56.3125 17.5369 55.5052C16.783 54.6979 16.8263 53.4323 17.6336 52.6784C18.4408 51.9245 19.7064 51.9678 20.4603 52.775C21.2143 53.5823 21.171 54.8479 20.3637 55.6018Z" fill="#DADADA"/>
<path d="M25.824 61.4486C25.0168 62.2025 23.7512 62.1593 22.9973 61.352C22.2434 60.5447 22.2866 59.2791 23.0939 58.5252C23.9012 57.7713 25.1667 57.8146 25.9207 58.6218C26.6746 59.4291 26.6313 60.6947 25.824 61.4486Z" fill="#DADADA"/>
<path d="M31.2844 67.2954C30.4771 68.0493 29.2115 68.0061 28.4576 67.1988C27.7037 66.3915 27.7469 65.1259 28.5542 64.372C29.3615 63.6181 30.6271 63.6613 31.381 64.4686C32.1349 65.2759 32.0916 66.5415 31.2844 67.2954Z" fill="#DADADA"/>
<path d="M36.7447 73.1422C35.9374 73.8961 34.6718 73.8528 33.9179 73.0456C33.164 72.2383 33.2072 70.9727 34.0145 70.2188C34.8218 69.4649 36.0874 69.5081 36.8413 70.3154C37.5952 71.1227 37.552 72.3883 36.7447 73.1422Z" fill="#DADADA"/>
<path d="M42.205 78.989C41.3977 79.7429 40.1321 79.6996 39.3782 78.8923C38.6243 78.0851 38.6676 76.8195 39.4748 76.0656C40.2821 75.3117 41.5477 75.3549 42.3016 76.1622C43.0555 76.9695 43.0123 78.2351 42.205 78.989Z" fill="#DADADA"/>
<path d="M25.9082 17.5853C25.1009 18.3392 23.8353 18.2959 23.0814 17.4887C22.3275 16.6814 22.3708 15.4158 23.178 14.6619C23.9853 13.908 25.2509 13.9512 26.0048 14.7585C26.7587 15.5658 26.7155 16.8314 25.9082 17.5853Z" fill="#DADADA"/>
<path d="M31.3685 23.4321C30.5613 24.186 29.2957 24.1427 28.5418 23.3354C27.7878 22.5282 27.8311 21.2626 28.6384 20.5087C29.4456 19.7548 30.7112 19.798 31.4651 20.6053C32.2191 21.4126 32.1758 22.6781 31.3685 23.4321Z" fill="#DADADA"/>
<path d="M36.8288 29.2788C36.0216 30.0328 34.756 29.9895 34.0021 29.1822C33.2482 28.375 33.2914 27.1094 34.0987 26.3554C34.906 25.6015 36.1716 25.6448 36.9255 26.4521C37.6794 27.2593 37.6361 28.5249 36.8288 29.2788Z" fill="#DADADA"/>
<path d="M42.2892 35.1256C41.4819 35.8795 40.2163 35.8363 39.4624 35.029C38.7085 34.2217 38.7517 32.9561 39.559 32.2022C40.3663 31.4483 41.6319 31.4916 42.3858 32.2989C43.1397 33.1061 43.0964 34.3717 42.2892 35.1256Z" fill="#DADADA"/>
<path d="M47.7495 40.9724C46.9422 41.7263 45.6766 41.6831 44.9227 40.8758C44.1688 40.0685 44.2121 38.8029 45.0193 38.049C45.8266 37.2951 47.0922 37.3384 47.8461 38.1456C48.6 38.9529 48.5568 40.2185 47.7495 40.9724Z" fill="#DADADA"/>
<path d="M53.2098 46.8192C52.4025 47.5731 51.1369 47.5299 50.383 46.7226C49.6291 45.9153 49.6724 44.6497 50.4796 43.8958C51.2869 43.1419 52.5525 43.1852 53.3064 43.9924C54.0603 44.7997 54.0171 46.0653 53.2098 46.8192Z" fill="#DADADA"/>
<path d="M58.6701 52.666C57.8629 53.4199 56.5973 53.3766 55.8434 52.5694C55.0894 51.7621 55.1327 50.4965 55.94 49.7426C56.7472 48.9887 58.0128 49.0319 58.7667 49.8392C59.5207 50.6465 59.4774 51.9121 58.6701 52.666Z" fill="#DADADA"/>
<path d="M64.1304 58.5128C63.3232 59.2667 62.0576 59.2234 61.3037 58.4162C60.5498 57.6089 60.593 56.3433 61.4003 55.5894C62.2076 54.8355 63.4732 54.8787 64.2271 55.686C64.981 56.4933 64.9377 57.7589 64.1304 58.5128Z" fill="#DADADA"/>
<path d="M18.5997 24.4106C17.7925 25.1646 16.5269 25.1213 15.773 24.314C15.019 23.5068 15.0623 22.2412 15.8696 21.4873C16.6768 20.7333 17.9424 20.7766 18.6964 21.5839C19.4503 22.3911 19.407 23.6567 18.5997 24.4106Z" fill="#DADADA"/>
<path d="M24.0601 30.2574C23.2528 31.0113 21.9872 30.9681 21.2333 30.1608C20.4794 29.3535 20.5226 28.088 21.3299 27.334C22.1372 26.5801 23.4028 26.6234 24.1567 27.4307C24.9106 28.2379 24.8673 29.5035 24.0601 30.2574Z" fill="#DADADA"/>
<path d="M29.5204 36.1042C28.7131 36.8581 27.4475 36.8149 26.6936 36.0076C25.9397 35.2003 25.9829 33.9347 26.7902 33.1808C27.5975 32.4269 28.8631 32.4702 29.617 33.2774C30.3709 34.0847 30.3276 35.3503 29.5204 36.1042Z" fill="#DADADA"/>
<path d="M34.9807 41.951C34.1734 42.7049 32.9078 42.6617 32.1539 41.8544C31.4 41.0471 31.4433 39.7815 32.2505 39.0276C33.0578 38.2737 34.3234 38.317 35.0773 39.1242C35.8312 39.9315 35.788 41.1971 34.9807 41.951Z" fill="#DADADA"/>
<path d="M40.441 47.7978C39.6337 48.5517 38.3682 48.5084 37.6142 47.7012C36.8603 46.8939 36.9036 45.6283 37.7109 44.8744C38.5181 44.1205 39.7837 44.1637 40.5376 44.971C41.2915 45.7783 41.2483 47.0439 40.441 47.7978Z" fill="#DADADA"/>
<path d="M45.9013 53.6446C45.0941 54.3985 43.8285 54.3552 43.0746 53.548C42.3206 52.7407 42.3639 51.4751 43.1712 50.7212C43.9785 49.9673 45.244 50.0105 45.998 50.8178C46.7519 51.6251 46.7086 52.8907 45.9013 53.6446Z" fill="#DADADA"/>
<path d="M51.3617 59.4914C50.5544 60.2453 49.2888 60.202 48.5349 59.3947C47.781 58.5875 47.8242 57.3219 48.6315 56.568C49.4388 55.8141 50.7044 55.8573 51.4583 56.6646C52.2122 57.4719 52.1689 58.7374 51.3617 59.4914Z" fill="#DADADA"/>
<path d="M56.822 65.3382C56.0147 66.0921 54.7491 66.0488 53.9952 65.2415C53.2413 64.4343 53.2845 63.1687 54.0918 62.4148C54.8991 61.6608 56.1647 61.7041 56.9186 62.5114C57.6725 63.3186 57.6292 64.5842 56.822 65.3382Z" fill="#DADADA"/>
<path d="M33.2167 10.7599C32.4094 11.5138 31.1438 11.4705 30.3899 10.6632C29.636 9.85597 29.6792 8.59038 30.4865 7.83647C31.2938 7.08255 32.5594 7.12581 33.3133 7.93308C34.0672 8.74036 34.024 10.0059 33.2167 10.7599Z" fill="#DADADA"/>
<path d="M38.677 16.6066C37.8697 17.3606 36.6041 17.3173 35.8502 16.51C35.0963 15.7028 35.1396 14.4372 35.9468 13.6833C36.7541 12.9293 38.0197 12.9726 38.7736 13.7799C39.5275 14.5871 39.4843 15.8527 38.677 16.6066Z" fill="#DADADA"/>
<path d="M44.1373 22.4534C43.33 23.2073 42.0645 23.1641 41.3105 22.3568C40.5566 21.5495 40.5999 20.284 41.4072 19.53C42.2144 18.7761 43.48 18.8194 44.2339 19.6267C44.9879 20.4339 44.9446 21.6995 44.1373 22.4534Z" fill="#DADADA"/>
<path d="M49.5976 28.3002C48.7904 29.0541 47.5248 29.0109 46.7709 28.2036C46.0169 27.3963 46.0602 26.1307 46.8675 25.3768C47.6748 24.6229 48.9403 24.6662 49.6943 25.4734C50.4482 26.2807 50.4049 27.5463 49.5976 28.3002Z" fill="#DADADA"/>
<path d="M55.058 34.147C54.2507 34.9009 52.9851 34.8577 52.2312 34.0504C51.4773 33.2431 51.5205 31.9775 52.3278 31.2236C53.1351 30.4697 54.4007 30.513 55.1546 31.3202C55.9085 32.1275 55.8652 33.3931 55.058 34.147Z" fill="#DADADA"/>
<path d="M60.5183 39.9938C59.711 40.7477 58.4454 40.7044 57.6915 39.8972C56.9376 39.0899 56.9808 37.8243 57.7881 37.0704C58.5954 36.3165 59.861 36.3597 60.6149 37.167C61.3688 37.9743 61.3256 39.2399 60.5183 39.9938Z" fill="#DADADA"/>
<path d="M65.9786 45.8406C65.1713 46.5945 63.9057 46.5512 63.1518 45.744C62.3979 44.9367 62.4412 43.6711 63.2484 42.9172C64.0557 42.1633 65.3213 42.2065 66.0752 43.0138C66.8291 43.8211 66.7859 45.0867 65.9786 45.8406Z" fill="#DADADA"/>
<path d="M71.4389 51.6874C70.6316 52.4413 69.3661 52.398 68.6121 51.5907C67.8582 50.7835 67.9015 49.5179 68.7088 48.764C69.516 48.0101 70.7816 48.0533 71.5355 48.8606C72.2895 49.6679 72.2462 50.9334 71.4389 51.6874Z" fill="#DADADA"/>
<path d="M11.2912 31.2361C10.484 31.99 9.21837 31.9467 8.46446 31.1394C7.71055 30.3322 7.7538 29.0666 8.56107 28.3127C9.36835 27.5588 10.6339 27.602 11.3879 28.4093C12.1418 29.2166 12.0985 30.4821 11.2912 31.2361Z" fill="#DADADA"/>
<path d="M16.7516 37.0828C15.9443 37.8368 14.6787 37.7935 13.9248 36.9862C13.1709 36.179 13.2141 34.9134 14.0214 34.1595C14.8287 33.4055 16.0943 33.4488 16.8482 34.2561C17.6021 35.0633 17.5588 36.3289 16.7516 37.0828Z" fill="#DADADA"/>
<path d="M22.2119 42.9296C21.4046 43.6835 20.139 43.6403 19.3851 42.833C18.6312 42.0257 18.6744 40.7602 19.4817 40.0062C20.289 39.2523 21.5546 39.2956 22.3085 40.1029C23.0624 40.9101 23.0191 42.1757 22.2119 42.9296Z" fill="#DADADA"/>
<path d="M27.6722 48.7764C26.8649 49.5303 25.5993 49.4871 24.8454 48.6798C24.0915 47.8725 24.1348 46.6069 24.942 45.853C25.7493 45.0991 27.0149 45.1424 27.7688 45.9496C28.5227 46.7569 28.4795 48.0225 27.6722 48.7764Z" fill="#DADADA"/>
<path d="M33.1325 54.6232C32.3252 55.3771 31.0597 55.3339 30.3057 54.5266C29.5518 53.7193 29.5951 52.4537 30.4024 51.6998C31.2096 50.9459 32.4752 50.9892 33.2291 51.7964C33.983 52.6037 33.9398 53.8693 33.1325 54.6232Z" fill="#DADADA"/>
<path d="M38.5928 60.47C37.7856 61.2239 36.52 61.1806 35.7661 60.3734C35.0121 59.5661 35.0554 58.3005 35.8627 57.5466C36.6699 56.7927 37.9355 56.8359 38.6895 57.6432C39.4434 58.4505 39.4001 59.7161 38.5928 60.47Z" fill="#DADADA"/>
<path d="M44.0532 66.3168C43.2459 67.0707 41.9803 67.0274 41.2264 66.2202C40.4725 65.4129 40.5157 64.1473 41.323 63.3934C42.1303 62.6395 43.3959 62.6827 44.1498 63.49C44.9037 64.2973 44.8604 65.5629 44.0532 66.3168Z" fill="#DADADA"/>
<path d="M49.5135 72.1636C48.7062 72.9175 47.4406 72.8742 46.6867 72.0669C45.9328 71.2597 45.976 69.9941 46.7833 69.2402C47.5906 68.4863 48.8562 68.5295 49.6101 69.3368C50.364 70.1441 50.3207 71.4096 49.5135 72.1636Z" fill="#DADADA"/>
<path d="M47.9828 85.0615C47.1755 85.8154 45.9099 85.7721 45.156 84.9649C44.4021 84.1576 44.4453 82.892 45.2526 82.1381C46.0599 81.3842 47.3255 81.4274 48.0794 82.2347C48.8333 83.042 48.79 84.3075 47.9828 85.0615Z" fill="#DADADA"/>
<path d="M53.4431 90.9082C52.6358 91.6622 51.3702 91.6189 50.6163 90.8116C49.8624 90.0044 49.9057 88.7388 50.7129 87.9849C51.5202 87.2309 52.7858 87.2742 53.5397 88.0815C54.2936 88.8887 54.2504 90.1543 53.4431 90.9082Z" fill="#DADADA"/>
<path d="M58.9034 96.755C58.0961 97.5089 56.8305 97.4657 56.0766 96.6584C55.3227 95.8512 55.366 94.5856 56.1732 93.8316C56.9805 93.0777 58.2461 93.121 59 93.9283C59.7539 94.7355 59.7107 96.0011 58.9034 96.755Z" fill="#DADADA"/>
<path d="M64.3637 102.602C63.5564 103.356 62.2909 103.312 61.5369 102.505C60.783 101.698 60.8263 100.432 61.6336 99.6784C62.4408 98.9245 63.7064 98.9678 64.4603 99.775C65.2142 100.582 65.171 101.848 64.3637 102.602Z" fill="#DADADA"/>
<path d="M69.824 108.449C69.0168 109.203 67.7512 109.159 66.9973 108.352C66.2434 107.545 66.2866 106.279 67.0939 105.525C67.9012 104.771 69.1667 104.815 69.9207 105.622C70.6746 106.429 70.6313 107.695 69.824 108.449Z" fill="#DADADA"/>
<path d="M75.2844 114.295C74.4771 115.049 73.2115 115.006 72.4576 114.199C71.7037 113.392 71.7469 112.126 72.5542 111.372C73.3615 110.618 74.6271 110.661 75.381 111.469C76.1349 112.276 76.0916 113.541 75.2844 114.295Z" fill="#DADADA"/>
<path d="M80.7447 120.142C79.9374 120.896 78.6718 120.853 77.9179 120.046C77.164 119.238 77.2073 117.973 78.0145 117.219C78.8218 116.465 80.0874 116.508 80.8413 117.315C81.5952 118.123 81.552 119.388 80.7447 120.142Z" fill="#DADADA"/>
<path d="M86.205 125.989C85.3977 126.743 84.1321 126.7 83.3782 125.892C82.6243 125.085 82.6676 123.819 83.4748 123.066C84.2821 122.312 85.5477 122.355 86.3016 123.162C87.0555 123.969 87.0123 125.235 86.205 125.989Z" fill="#DADADA"/>
<path d="M62.5997 71.4106C61.7925 72.1646 60.5269 72.1213 59.773 71.314C59.019 70.5068 59.0623 69.2412 59.8696 68.4873C60.6768 67.7333 61.9424 67.7766 62.6964 68.5839C63.4503 69.3911 63.407 70.6567 62.5997 71.4106Z" fill="#DADADA"/>
<path d="M68.0601 77.2574C67.2528 78.0113 65.9872 77.9681 65.2333 77.1608C64.4794 76.3535 64.5226 75.088 65.3299 74.334C66.1372 73.5801 67.4028 73.6234 68.1567 74.4307C68.9106 75.2379 68.8673 76.5035 68.0601 77.2574Z" fill="#DADADA"/>
<path d="M73.5204 83.1042C72.7131 83.8581 71.4475 83.8149 70.6936 83.0076C69.9397 82.2003 69.9829 80.9347 70.7902 80.1808C71.5975 79.4269 72.8631 79.4702 73.617 80.2774C74.3709 81.0847 74.3277 82.3503 73.5204 83.1042Z" fill="#DADADA"/>
<path d="M78.9807 88.951C78.1734 89.7049 76.9078 89.6617 76.1539 88.8544C75.4 88.0471 75.4433 86.7815 76.2505 86.0276C77.0578 85.2737 78.3234 85.317 79.0773 86.1242C79.8312 86.9315 79.788 88.1971 78.9807 88.951Z" fill="#DADADA"/>
<path d="M84.441 94.7978C83.6337 95.5517 82.3682 95.5084 81.6142 94.7012C80.8603 93.8939 80.9036 92.6283 81.7109 91.8744C82.5181 91.1205 83.7837 91.1637 84.5376 91.971C85.2915 92.7783 85.2483 94.0439 84.441 94.7978Z" fill="#DADADA"/>
<path d="M89.9013 100.645C89.0941 101.398 87.8285 101.355 87.0746 100.548C86.3206 99.7407 86.3639 98.4751 87.1712 97.7212C87.9785 96.9673 89.244 97.0105 89.998 97.8178C90.7519 98.6251 90.7086 99.8907 89.9013 100.645Z" fill="#DADADA"/>
<path d="M95.3617 106.491C94.5544 107.245 93.2888 107.202 92.5349 106.395C91.781 105.587 91.8242 104.322 92.6315 103.568C93.4388 102.814 94.7044 102.857 95.4583 103.665C96.2122 104.472 96.1689 105.737 95.3617 106.491Z" fill="#DADADA"/>
<path d="M100.822 112.338C100.015 113.092 98.7491 113.049 97.9952 112.242C97.2413 111.434 97.2845 110.169 98.0918 109.415C98.8991 108.661 100.165 108.704 100.919 109.511C101.673 110.319 101.629 111.584 100.822 112.338Z" fill="#DADADA"/>
<path d="M55.2912 78.2361C54.484 78.99 53.2184 78.9467 52.4645 78.1394C51.7105 77.3322 51.7538 76.0666 52.5611 75.3127C53.3683 74.5587 54.6339 74.602 55.3879 75.4093C56.1418 76.2166 56.0985 77.4821 55.2912 78.2361Z" fill="#DADADA"/>
<path d="M60.7516 84.0828C59.9443 84.8368 58.6787 84.7935 57.9248 83.9862C57.1709 83.179 57.2141 81.9134 58.0214 81.1594C58.8287 80.4055 60.0943 80.4488 60.8482 81.2561C61.6021 82.0633 61.5588 83.3289 60.7516 84.0828Z" fill="#DADADA"/>
<path d="M66.2119 89.9296C65.4046 90.6835 64.139 90.6403 63.3851 89.833C62.6312 89.0257 62.6744 87.7601 63.4817 87.0062C64.289 86.2523 65.5546 86.2956 66.3085 87.1029C67.0624 87.9101 67.0191 89.1757 66.2119 89.9296Z" fill="#DADADA"/>
<path d="M71.6722 95.7764C70.8649 96.5303 69.5993 96.4871 68.8454 95.6798C68.0915 94.8725 68.1348 93.6069 68.942 92.853C69.7493 92.0991 71.0149 92.1424 71.7688 92.9496C72.5227 93.7569 72.4795 95.0225 71.6722 95.7764Z" fill="#DADADA"/>
<path d="M77.1325 101.623C76.3252 102.377 75.0597 102.334 74.3057 101.527C73.5518 100.719 73.5951 99.4537 74.4024 98.6998C75.2096 97.9459 76.4752 97.9892 77.2291 98.7964C77.983 99.6037 77.9398 100.869 77.1325 101.623Z" fill="#DADADA"/>
<path d="M82.5928 107.47C81.7856 108.224 80.52 108.181 79.7661 107.373C79.0121 106.566 79.0554 105.301 79.8627 104.547C80.67 103.793 81.9355 103.836 82.6895 104.643C83.4434 105.45 83.4001 106.716 82.5928 107.47Z" fill="#DADADA"/>
<path d="M88.0532 113.317C87.2459 114.071 85.9803 114.027 85.2264 113.22C84.4725 112.413 84.5157 111.147 85.323 110.393C86.1303 109.639 87.3959 109.683 88.1498 110.49C88.9037 111.297 88.8604 112.563 88.0532 113.317Z" fill="#DADADA"/>
<path d="M93.5135 119.164C92.7062 119.917 91.4406 119.874 90.6867 119.067C89.9328 118.26 89.976 116.994 90.7833 116.24C91.5906 115.486 92.8562 115.53 93.6101 116.337C94.364 117.144 94.3207 118.41 93.5135 119.164Z" fill="#DADADA"/>
</svg>
