<svg width="80" height="74" viewBox="0 0 80 74" fill="none" xmlns="http://www.w3.org/2000/svg">
<circle cx="22" cy="2" r="2" fill="#C9C9C9"/>
<circle cx="30" cy="2" r="2" fill="#C9C9C9"/>
<circle cx="38" cy="2" r="2" fill="#C9C9C9"/>
<circle cx="46" cy="2" r="2" fill="#C9C9C9"/>
<circle cx="54" cy="2" r="2" fill="#C9C9C9"/>
<circle cx="62" cy="2" r="2" fill="#C9C9C9"/>
<circle cx="70" cy="2" r="2" fill="#C9C9C9"/>
<circle cx="78" cy="2" r="2" fill="#C9C9C9"/>
<circle cx="22" cy="22" r="2" fill="#C9C9C9"/>
<circle cx="30" cy="22" r="2" fill="#C9C9C9"/>
<circle cx="38" cy="22" r="2" fill="#C9C9C9"/>
<circle cx="46" cy="22" r="2" fill="#C9C9C9"/>
<circle cx="54" cy="22" r="2" fill="#C9C9C9"/>
<circle cx="62" cy="22" r="2" fill="#C9C9C9"/>
<circle cx="70" cy="22" r="2" fill="#C9C9C9"/>
<circle cx="78" cy="22" r="2" fill="#C9C9C9"/>
<circle cx="22" cy="32" r="2" fill="#C9C9C9"/>
<circle cx="30" cy="32" r="2" fill="#C9C9C9"/>
<circle cx="38" cy="32" r="2" fill="#C9C9C9"/>
<circle cx="46" cy="32" r="2" fill="#C9C9C9"/>
<circle cx="54" cy="32" r="2" fill="#C9C9C9"/>
<circle cx="62" cy="32" r="2" fill="#C9C9C9"/>
<circle cx="70" cy="32" r="2" fill="#C9C9C9"/>
<circle cx="78" cy="32" r="2" fill="#C9C9C9"/>
<circle cx="22" cy="12" r="2" fill="#C9C9C9"/>
<circle cx="30" cy="12" r="2" fill="#C9C9C9"/>
<circle cx="38" cy="12" r="2" fill="#C9C9C9"/>
<circle cx="46" cy="12" r="2" fill="#C9C9C9"/>
<circle cx="54" cy="12" r="2" fill="#C9C9C9"/>
<circle cx="62" cy="12" r="2" fill="#C9C9C9"/>
<circle cx="70" cy="12" r="2" fill="#C9C9C9"/>
<circle cx="78" cy="12" r="2" fill="#C9C9C9"/>
<circle cx="22" cy="42" r="2" fill="#C9C9C9"/>
<circle cx="30" cy="42" r="2" fill="#C9C9C9"/>
<circle cx="38" cy="42" r="2" fill="#C9C9C9"/>
<circle cx="46" cy="42" r="2" fill="#C9C9C9"/>
<circle cx="54" cy="42" r="2" fill="#C9C9C9"/>
<circle cx="62" cy="42" r="2" fill="#C9C9C9"/>
<circle cx="70" cy="42" r="2" fill="#C9C9C9"/>
<circle cx="78" cy="42" r="2" fill="#C9C9C9"/>
<circle cx="2" cy="52" r="2" fill="#C9C9C9"/>
<circle cx="10" cy="52" r="2" fill="#C9C9C9"/>
<circle cx="18" cy="52" r="2" fill="#C9C9C9"/>
<circle cx="26" cy="52" r="2" fill="#C9C9C9"/>
<circle cx="34" cy="52" r="2" fill="#C9C9C9"/>
<circle cx="42" cy="52" r="2" fill="#C9C9C9"/>
<circle cx="50" cy="52" r="2" fill="#C9C9C9"/>
<circle cx="58" cy="52" r="2" fill="#C9C9C9"/>
<circle cx="2" cy="62" r="2" fill="#C9C9C9"/>
<circle cx="10" cy="62" r="2" fill="#C9C9C9"/>
<circle cx="18" cy="62" r="2" fill="#C9C9C9"/>
<circle cx="26" cy="62" r="2" fill="#C9C9C9"/>
<circle cx="34" cy="62" r="2" fill="#C9C9C9"/>
<circle cx="42" cy="62" r="2" fill="#C9C9C9"/>
<circle cx="50" cy="62" r="2" fill="#C9C9C9"/>
<circle cx="58" cy="62" r="2" fill="#C9C9C9"/>
<circle cx="2" cy="72" r="2" fill="#C9C9C9"/>
<circle cx="10" cy="72" r="2" fill="#C9C9C9"/>
<circle cx="18" cy="72" r="2" fill="#C9C9C9"/>
<circle cx="26" cy="72" r="2" fill="#C9C9C9"/>
<circle cx="34" cy="72" r="2" fill="#C9C9C9"/>
<circle cx="42" cy="72" r="2" fill="#C9C9C9"/>
<circle cx="50" cy="72" r="2" fill="#C9C9C9"/>
<circle cx="58" cy="72" r="2" fill="#C9C9C9"/>
</svg>
